<?xml version="1.0" encoding="UTF-8" standalone="no"?>
        <svg 
    viewBox="3.4423828125 -86.572265625 446.8505859375 56.8359375"
    width="443.408203125"
    height="143.408203125"
   xmlns="http://www.w3.org/2000/svg"
   xmlns:svg="http://www.w3.org/2000/svg">
   <path d="M81.01-12.30L81.45-13.92Q101.37-13.62 113.67-11.39Q125.98-9.16 132.24-5.90Q138.50-2.64 139.97 0.88Q141.43 4.39 139.53 7.43Q137.62 10.47 133.67 12.19Q129.71 13.92 125.02 13.62Q120.34 13.33 116.38 10.03L116.38 10.03Q111.91 5.20 103.09-1.14Q94.26-7.47 81.01-12.30L81.01-12.30ZM50.10-19.04L50.10-19.04L74.56-3.44Q73.39-2.12 71.04-1.57Q68.70-1.03 64.67-1.83L64.67-1.83Q57.50 1.98 47.64 5.13Q37.79 8.28 26.51 10.58Q15.23 12.89 3.88 14.14L3.88 14.14L3.44 12.60Q12.45 8.79 21.46 3.33Q30.47-2.12 38.01-7.98Q45.56-13.84 50.10-19.04ZM104.37-46.07L104.37-61.38L85.18-61.38L85.18-46.07L104.37-46.07ZM5.42-76.68L4.17-80.86L113.23-80.86L124.95-95.43Q124.95-95.43 127.11-93.86Q129.27-92.29 132.64-89.76Q136.01-87.23 139.67-84.41Q143.33-81.59 146.41-79.03L146.41-79.03Q145.75-76.68 142.02-76.68L142.02-76.68L85.18-76.68L85.18-65.55L102.91-65.55L112.50-76.03L132.42-61.08Q131.69-60.13 130.26-59.25Q128.83-58.37 126.42-57.93L126.42-57.93L126.42-19.04Q126.34-18.53 123.27-17.40Q120.19-16.26 115.94-15.34Q111.69-14.43 108.18-14.43L108.18-14.43L104.37-14.43L104.37-20.73L46.22-20.73L46.22-18.16Q46.22-17.14 43.40-15.56Q40.58-13.99 36.29-12.71Q32.01-11.43 27.61-11.43L27.61-11.43L24.46-11.43L24.46-74.27L47.39-65.55L63.87-65.55L63.87-76.68L5.42-76.68ZM46.22-41.82L46.22-24.90L63.87-24.90L63.87-41.82L46.22-41.82ZM46.22-61.38L46.22-46.07L63.87-46.07L63.87-61.38L46.22-61.38ZM85.18-24.90L104.37-24.90L104.37-41.82L85.18-41.82L85.18-24.90ZM83.72-110.23L83.72-128.25L110.82-125.98Q110.74-124.51 109.68-123.38Q108.62-122.24 105.47-121.80L105.47-121.80L105.47-110.23L111.18-110.23L121.95-123.78Q121.95-123.78 123.93-122.28Q125.90-120.78 129.02-118.43Q132.13-116.09 135.53-113.45Q138.94-110.82 141.72-108.47L141.72-108.47Q141.06-106.05 137.40-106.05L137.40-106.05L105.47-106.05L105.47-87.89Q105.47-87.30 102.69-86.35Q99.90-85.40 95.73-84.63Q91.55-83.86 87.30-83.86L87.30-83.86L83.72-83.86L83.72-91.19L64.82-91.19L64.82-87.16Q64.82-86.57 62.15-85.58Q59.47-84.59 55.37-83.86Q51.27-83.13 47.09-83.13L47.09-83.13L43.51-83.13L43.51-106.05L13.77-106.05L12.60-110.23L43.51-110.23L43.51-128.25L70.39-125.98Q70.09-124.51 69.03-123.38Q67.97-122.24 64.82-121.80L64.82-121.80L64.82-110.23L83.72-110.23ZM83.72-106.05L64.82-106.05L64.82-95.43L83.72-95.43L83.72-106.05ZM198.27-0.44L198.27-74.56L222.00-72.44Q221.92-71.19 221.01-70.28Q220.09-69.36 217.68-68.99L217.68-68.99L217.68-5.42Q217.68-4.61 215.19-3.44Q212.70-2.27 209.07-1.35Q205.44-0.44 201.93-0.44L201.93-0.44L198.27-0.44ZM179.88-91.63L179.88-91.63L204.57-82.18Q204.05-80.86 202.55-80.05Q201.05-79.25 198.49-79.47L198.49-79.47Q193.29-68.92 187.21-60.13L187.21-60.13L194.38-57.42Q193.73-55.52 189.77-54.57L189.77-54.57L189.77 8.86Q189.62 9.52 187.21 10.73Q184.79 11.94 181.16 12.93Q177.54 13.92 173.73 13.92L173.73 13.92L170.07 13.92L170.07-40.50Q166.63-37.21 162.93-34.39Q159.23-31.57 155.42-29.08L155.42-29.08L153.74-30.32Q158.79-37.65 163.73-47.57Q168.68-57.50 172.89-68.81Q177.10-80.13 179.88-91.63ZM235.03-91.19L235.03-91.19L261.62-83.57Q260.60-80.42 255.76-80.42L255.76-80.42Q252.61-72.80 248.88-66.14L248.88-66.14L268.65-66.14L278.39-79.03Q278.39-79.03 280.19-77.60Q281.98-76.17 284.77-73.94Q287.55-71.70 290.59-69.14Q293.63-66.58 296.12-64.38L296.12-64.38Q295.46-61.96 291.87-61.96L291.87-61.96L282.28-61.96Q280.37-49.66 276.20-39.18Q272.02-28.71 265.06-19.92L265.06-19.92Q271.66-15.89 279.86-13.00Q288.06-10.11 297.73-8.13L297.73-8.13L297.44-6.45Q290.04-3.96 286.16 1.21Q282.28 6.37 280.96 14.72L280.96 14.72Q271.36 10.99 264.26 5.49Q257.15 0 252.03-7.18L252.03-7.18Q242.21 0.44 228.70 5.97Q215.19 11.50 197.39 14.87L197.39 14.87L196.80 13.18Q213.65 6.81 225.33-1.68Q237.01-10.18 244.34-20.58L244.34-20.58Q241.63-26.51 239.58-33.25Q237.52-39.99 235.99-47.53L235.99-47.53Q232.25-43.29 228.11-39.55Q223.97-35.82 219.58-32.67L219.58-32.67L217.82-33.76Q221.56-40.94 224.93-50.32Q228.30-59.69 230.93-70.17Q233.57-80.64 235.03-91.19ZM238.77-50.98L238.77-50.98Q243.38-39.62 250.78-31.49L250.78-31.49Q254.08-38.45 256.05-46.03Q258.03-53.61 258.91-61.96L258.91-61.96L246.46-61.96Q244.63-59.03 242.72-56.32Q240.82-53.61 238.77-50.98ZM232.76-128.39L232.76-128.39L259.64-119.24Q258.40-116.02 253.49-116.24L253.49-116.24Q252.39-114.33 251.15-112.61Q249.90-110.89 248.73-109.20L248.73-109.20L269.24-109.20L278.98-121.66Q278.98-121.66 282.06-119.31Q285.13-116.97 289.27-113.64Q293.41-110.30 296.70-107.37L296.70-107.37Q296.26-105.03 292.53-105.03L292.53-105.03L263.38-105.03Q268.36-102.76 269.97-99.61Q271.58-96.46 270.70-93.46Q269.82-90.45 267.15-88.48Q264.48-86.50 260.78-86.43Q257.08-86.35 253.20-89.28L253.20-89.28Q252.98-93.38 251.44-97.63Q249.90-101.88 247.63-105.03L247.63-105.03L245.43-105.03Q239.79-98.51 233.24-93.53Q226.68-88.55 219.58-85.18L219.58-85.18L218.12-86.43Q222.80-94.41 226.68-105.03L226.68-105.03L202.95-105.03Q208.67-102.54 210.57-99.24Q212.48-95.95 211.56-92.83Q210.64-89.72 207.82-87.74Q205.00-85.77 201.23-85.88Q197.46-85.99 193.65-89.28L193.65-89.28Q193.80-93.38 192.55-97.56Q191.31-101.73 189.62-105.03L189.62-105.03L187.06-105.03Q180.18-95.80 171.94-89.06Q163.70-82.32 154.47-77.86L154.47-77.86L153.00-79.03Q159.74-87.82 165.86-101.00Q171.97-114.18 175.20-128.54L175.20-128.54L200.54-119.09Q199.51-115.94 194.38-116.38L194.38-116.38Q193.36-114.48 192.26-112.68Q191.16-110.89 190.06-109.20L190.06-109.20L206.25-109.20L214.97-121.22Q214.97-121.22 217.05-119.42Q219.14-117.63 222.22-114.95Q225.29-112.28 228.15-109.64L228.15-109.64Q229.61-114.18 230.82-118.95Q232.03-123.71 232.76-128.39ZM416.67-72.29L416.67-72.29L442.53-64.97Q442.16-63.72 440.95-62.88Q439.75-62.04 436.82-61.96L436.82-61.96Q433.67-52.08 429.09-41.97Q424.51-31.86 417.92-22.49L417.92-22.49Q420.26-19.34 423.01-16.52Q425.76-13.70 428.98-11.28L428.98-11.28Q430.44-10.03 431.47-10.07Q432.50-10.11 433.67-11.72L433.67-11.72Q435.35-14.43 437.92-19.23Q440.48-24.02 442.53-28.49L442.53-28.49L443.85-28.05L440.84-5.71Q445.02 0.73 445.75 4.50Q446.48 8.28 444.58 10.47L444.58 10.47Q441.21 14.43 436.30 14.43Q431.40 14.43 426.49 12.27Q421.58 10.11 418.21 7.47L418.21 7.47Q414.18 4.25 410.74 0.66Q407.30-2.93 404.37-6.74L404.37-6.74Q397.78-0.59 389.69 4.72Q381.59 10.03 371.56 13.92L371.56 13.92L370.53 12.45Q379.03 6.37 385.77-1.14Q392.50-8.64 397.63-17.07L397.63-17.07Q394.70-22.27 392.50-27.87Q390.31-33.47 388.62-39.33L388.62-39.33Q387.38-37.65 383.28-37.06L383.28-37.06Q381.88-31.79 380.05-26.88Q378.22-21.97 375.59-17.58L375.59-17.58Q380.86-14.36 382.51-10.40Q384.16-6.45 383.02-3.08Q381.88 0.29 378.66 1.83Q375.44 3.37 370.83 1.68L370.83 1.68Q369.80 0.07 368.59-1.68Q367.38-3.44 365.99-5.13L365.99-5.13Q359.47 1.10 350.39 5.68Q341.31 10.25 328.78 13.04L328.78 13.04L328.05 11.13Q338.16 6.81 345.30 0.37Q352.44-6.08 357.13-14.43L357.13-14.43L352.08-18.90L350.10-13.33Q347.53-11.79 342.81-11.65Q338.09-11.50 333.03-13.18L333.03-13.18Q334.94-17.94 337.17-25.01Q339.40-32.08 341.38-39.33L341.38-39.33L335.67-39.33Q334.64-30.10 331.60-20.29Q328.56-10.47 322.19-1.43Q315.82 7.62 304.83 14.72L304.83 14.72L303.74 13.62Q309.30 3.00 311.76-9.16Q314.21-21.31 314.83-33.47Q315.45-45.63 315.45-56.25L315.45-56.25L315.45-87.30L339.62-79.17L382.62-79.17Q382.40-83.57 382.29-88.07Q382.18-92.58 382.03-97.05L382.03-97.05L403.93-95.07L402.91-96.31L403.93-97.05L410.82-97.49L338.67-97.49L338.67-92.58Q338.67-91.92 336.07-91.04Q333.47-90.16 329.44-89.47Q325.42-88.77 321.31-88.77L321.31-88.77L317.87-88.77L317.87-123.63L344.24-121.51Q344.02-119.90 342.92-118.84Q341.82-117.77 338.67-117.33L338.67-117.33L338.67-101.73L363.43-101.73L363.43-128.39L390.31-126.42Q390.09-124.88 388.99-123.78Q387.89-122.68 384.74-122.09L384.74-122.09L384.74-101.73L410.82-101.73L410.82-123.63L437.84-121.51Q437.62-119.90 436.56-118.84Q435.50-117.77 432.42-117.33L432.42-117.33L432.42-97.92Q432.42-97.27 429.24-96.31Q426.05-95.36 421.66-94.78L421.66-94.78Q425.02-92.65 425.13-89.69Q425.24-86.72 423.05-84.30Q420.85-81.88 417.22-81.23Q413.60-80.57 409.50-83.13L409.50-83.13Q409.28-85.33 408.29-87.71Q407.30-90.09 406.05-92.07L406.05-92.07Q404.66-91.04 402.47-90.60L402.47-90.60L402.61-79.17L420.26-79.17L429.79-91.48Q429.79-91.48 432.71-89.14Q435.64-86.79 439.64-83.53Q443.63-80.27 446.85-77.42L446.85-77.42Q446.41-75 442.82-75L442.82-75L402.91-75Q403.49-65.92 404.85-57.24Q406.20-48.56 408.91-40.65L408.91-40.65Q411.69-48.63 413.64-56.58Q415.58-64.53 416.67-72.29ZM365.55-39.33L358.23-39.33L353.39-23.07Q355.44-23.00 357.28-22.85Q359.11-22.71 360.86-22.34L360.86-22.34Q362.48-26.29 363.61-30.54Q364.75-34.79 365.55-39.33L365.55-39.33ZM338.23-59.55L337.06-63.72L359.84-63.72L368.41-75L336.47-75L336.47-56.25Q336.47-50.24 336.04-43.51L336.04-43.51L342.63-43.51Q343.87-48.12 344.82-52.33Q345.78-56.54 346.36-59.55L346.36-59.55L338.23-59.55ZM362.11-53.98L359.40-43.51L364.67-43.51L373.17-52.37L388.62-39.62Q387.08-44.90 386.02-50.39Q384.96-55.88 384.30-61.67L384.30-61.67Q383.64-59.55 380.42-59.55L380.42-59.55L355.66-59.55L368.12-57.93Q367.75-56.32 366.43-55.26Q365.11-54.20 362.11-53.98L362.11-53.98ZM384.16-62.26L384.16-62.26Q383.79-65.41 383.50-68.55Q383.20-71.70 382.98-75L382.98-75L368.70-75Q369.14-74.63 371.81-72.55Q374.49-70.46 377.93-67.64Q381.37-64.82 384.16-62.26Z"/>
    </svg>
        