<svg width="296" height="296" version="1.1" xmlns="http://www.w3.org/2000/svg" xmlns:xlink="http://www.w3.org/1999/xlink"><path d="M230.58 117.81L230.88 118.10Q232.66 129.35 228.81 132.02L228.81 132.02Q223.18 132.02 219.93 127.87L219.93 127.87L205.13 112.78Q203.65 111 202.46 109.22L202.46 109.22L203.35 104.78L203.65 104.49Q220.82 108.63 226.44 113.37L226.44 113.37L230.58 117.81ZM215.49 53.28L215.49 53.28Q209.57 58.90 205.72 74L205.72 74Q201.87 89.39 194.77 95.31L194.77 95.31Q188.26 95.31 188.26 81.40L188.26 81.40Q166.06 77.85 114.55 90.28L114.55 90.28Q88.21 96.79 75.18 102.71L75.18 102.71Q71.93 102.71 66.90 97.09L66.90 97.09Q65.71 95.90 65.12 95.31L65.12 95.31Q65.12 93.24 70.45 85.54L70.45 85.54Q78.74 74.30 78.74 60.38L78.74 60.38L77.55 48.84Q77.85 47.06 78.44 46.47L78.44 46.47Q85.54 46.47 92.65 57.72L92.65 57.72L93.83 59.79Q93.54 63.34 89.10 78.44L89.10 78.44L87.32 84.36L88.50 85.54Q112.78 80.81 133.50 77.85L133.50 77.85Q133.50 49.14 129.06 36.70L129.06 36.70Q127.87 33.74 126.69 31.38L126.69 31.38Q126.69 28.42 129.65 26.94L129.65 26.94Q142.97 27.53 152.44 37.30L152.44 37.30Q146.52 67.19 145.34 75.48L145.34 75.48L178.19 74.30Q183.82 73.70 187.96 72.52L187.96 72.52Q197.73 69.86 194.77 37.59L194.77 37.59L194.77 36.41Q195.36 34.93 200.69 34.93L200.69 34.93L211.34 43.81Q215.49 47.95 215.49 53.28ZM253.38 277.06L253.38 277.06Q251.01 279.72 246.57 279.72L246.57 279.72L245.09 279.72Q243.31 279.42 235.62 275.87L235.62 275.87Q206.90 261.37 186.48 226.74L186.48 226.74L172.86 240.06Q166.06 245.68 159.25 246.57L159.25 246.57L158.66 245.38L177.60 222Q179.38 219.34 180.86 216.97L180.86 216.97L180.86 214.60Q166.94 186.48 153.92 134.09L153.92 134.09Q146.22 134.09 119.58 139.42L119.58 139.42Q98.57 143.56 85.25 140.90L85.25 140.90Q82.58 148 76.66 175.53L76.66 175.53Q73.70 189.14 70.15 197.43L70.15 197.43Q70.74 197.43 94.72 195.36L94.72 195.36Q96.50 195.36 97.98 195.36L97.98 195.36L101.82 182.04Q102.71 177.01 100.05 173.16L100.05 173.16Q90.58 173.16 85.25 166.65L85.25 166.65L86.43 165.46Q106.56 159.54 127.28 156.29L127.28 156.29Q129.94 155.99 131.13 155.99L131.13 155.99Q139.42 155.99 143.86 161.32L143.86 161.32L142.08 163.10L109.52 170.20Q107.74 170.79 106.26 171.38L106.26 171.38L113.07 176.71Q114.55 178.78 114.85 181.45L114.85 181.45Q109.52 187.96 108.93 192.99L108.93 192.99Q110.41 192.99 126.39 190.33L126.39 190.33Q127.28 190.03 128.17 190.03L128.17 190.03Q126.98 184.41 128.17 182.34L128.17 182.34Q131.42 182.34 139.12 186.18L139.12 186.18Q142.97 188.26 146.22 188.26L146.22 188.26Q151.85 191.22 152.74 192.70L152.74 192.70Q153.03 196.84 142.38 196.54L142.38 196.54Q133.79 216.97 125.80 231.18L125.80 231.18Q140.60 236.80 144.45 249.53L144.45 249.53Q145.34 252.49 145.34 255.74L145.34 255.74Q144.15 258.70 137.05 256.93L137.05 256.93L117.51 241.83Q102.42 256.93 80.51 256.93L80.51 256.93L80.51 256.04Q100.34 244.20 103.90 241.54L103.90 241.54Q106.86 239.17 109.22 236.80L109.22 236.80Q101.23 231.18 88.50 227.03L88.50 227.03L87.32 225.55Q89.39 217.56 95.31 206.02L95.31 206.02Q81.40 208.09 78.74 207.79L78.74 207.79Q73.11 207.20 68.67 202.46L68.67 202.46Q55.06 243.31 23.98 267.58L23.98 267.58Q20.13 268.77 18.94 267.58L18.94 267.58L41.14 232.95Q51.50 215.78 55.94 200.39L55.94 200.39Q65.12 166.35 66.01 152.44L66.01 152.44Q66.30 148.89 66.30 145.34L66.30 145.34Q66.30 140.30 66.01 137.64L66.01 137.64L63.05 128.17Q62.75 125.50 65.12 124.02L65.12 124.02Q72.22 124.32 83.77 133.50L83.77 133.50Q117.51 131.72 150.37 123.14L150.37 123.14Q149.48 113.37 141.19 105.38L141.19 105.38Q136.16 100.64 135.27 99.46L135.27 99.46Q131.42 95.61 138.82 94.13L138.82 94.13Q149.78 91.76 158.95 97.68L158.95 97.68Q162.80 100.05 164.58 103.60L164.58 103.60L163.98 118.10L182.04 115.44Q191.22 115.14 196.25 120.77L196.25 120.77Q196.25 123.14 193.58 125.21L193.58 125.21Q181.45 128.76 166.65 131.72L166.65 131.72Q171.09 165.17 188.26 203.35L188.26 203.35Q197.73 183.22 197.73 166.35L197.73 166.35L196.84 153.92Q197.14 151.26 198.32 150.37L198.32 150.37Q207.20 150.37 217.86 157.47L217.86 157.47L212.23 174.05Q205.13 200.10 195.36 216.38L195.36 216.38Q213.42 241.83 223.18 247.75L223.18 247.75Q227.33 250.12 230.88 250.12L230.88 250.12Q234.73 245.09 237.98 229.10L237.98 229.10Q239.46 223.48 240.65 220.22L240.65 220.22L241.83 219.34L243.31 219.93Q244.50 224.66 249.53 258.11L249.53 258.11Q251.30 269.06 253.38 277.06ZM126.39 198.91L126.39 198.91L108.34 202.46Q106.56 203.06 104.78 203.94L104.78 203.94Q98.57 218.74 97.98 222L97.98 222Q99.46 222.89 112.18 226.74L112.18 226.74Q114.26 227.33 115.74 227.92L115.74 227.92Q125.21 212.23 126.39 198.91Z" stroke="#000" fill="black" /></svg>