<svg width="296" height="296" version="1.1" xmlns="http://www.w3.org/2000/svg" xmlns:xlink="http://www.w3.org/1999/xlink"><path d="M227.33 56.71L227.33 56.71Q227.33 59.67 223.18 61.45L223.18 61.45Q210.16 66.78 182.04 67.96L182.04 67.96Q170.50 68.55 165.17 67.37L165.17 67.37Q150.96 87.20 141.19 92.82L141.19 92.82Q136.46 95.49 131.42 96.38L131.42 96.38Q132.90 91.05 142.08 80.98L142.08 80.98Q145.63 76.54 147.41 73.88L147.41 73.88Q160.14 54.05 160.14 37.18L160.14 37.18L159.54 27.70Q159.84 24.45 162.50 23.86L162.50 23.86Q168.42 22.67 178.19 29.48L178.19 29.48Q181.15 31.55 182.93 33.62L182.93 33.62L182.34 37.77Q174.64 49.31 169.31 59.97L169.31 59.97Q172.86 59.97 195.36 54.64L195.36 54.64Q219.63 49.31 227.33 56.71ZM196.54 104.07L196.54 104.07L190.62 103.78Q172.57 89.57 166.94 83.94L166.94 83.94L167.24 80.98Q167.54 80.10 168.42 79.80L168.42 79.80L176.12 80.98Q194.18 83.35 197.73 92.23L197.73 92.23Q198.91 94.90 198.91 98.74L198.91 98.74Q198.91 102.00 196.54 104.07ZM132.90 61.74L132.90 61.74Q132.90 64.41 127.87 65.59L127.87 65.59L125.50 66.78L90.28 73.58Q84.66 74.47 79.92 74.77L79.92 74.77Q67.78 91.94 52.39 102.30L52.39 102.30Q43.81 108.51 37.59 108.81L37.59 108.81L37.59 106.44Q61.27 83.65 68.97 68.55L68.97 68.55Q76.37 54.05 76.37 38.36L76.37 38.36Q82.88 35.10 92.65 43.10L92.65 43.10Q95.90 45.76 97.38 48.42L97.38 48.42L96.79 51.09Q89.98 59.38 86.43 65.59L86.43 65.59Q89.39 65.59 107.45 60.26L107.45 60.26Q127.28 54.64 132.90 61.74ZM263.44 253.85L264.92 255.92L261.66 257.70Q222.59 260.66 217.56 260.06L217.56 260.06L209.57 258.58Q203.94 256.51 197.14 249.41L197.14 249.41L169.31 217.14Q160.73 231.06 140.60 242.01L140.60 242.01Q114.55 256.22 99.16 247.93L99.16 247.93L100.94 246.15Q137.64 238.46 157.77 211.22L157.77 211.22Q159.25 209.15 160.73 206.78L160.73 206.78L138.53 180.44Q134.68 175.41 131.72 170.67L131.72 170.67Q121.95 178.07 118.70 179.26L118.70 179.26Q117.81 179.55 116.92 179.55L116.92 179.55L116.92 176.89Q142.38 146.10 148.89 125.68L148.89 125.68Q150.96 120.06 150.66 116.21L150.66 116.21L149.18 108.22Q149.48 106.44 150.96 105.55L150.96 105.55Q161.91 105.55 169.61 120.35L169.61 120.35L169.31 124.50L154.51 146.70Q176.12 143.74 203.94 133.67L203.94 133.67Q217.56 133.67 221.70 138.70L221.70 138.70Q221.70 141.66 219.34 142.55L219.34 142.55Q216.38 144.03 181.15 152.91L181.15 152.91Q190.03 159.42 191.51 162.98L191.51 162.98Q192.40 165.34 192.40 167.42L192.40 167.42Q188.55 174.22 176.71 202.34L176.71 202.34L175.53 205.60Q195.36 227.50 236.50 243.78L236.50 243.78Q238.58 244.67 263.44 253.85L263.44 253.85ZM167.83 155.87L167.83 155.87L153.03 156.46Q150.07 156.17 147.70 154.98L147.70 154.98L137.05 167.71L165.17 195.24L169.90 174.22Q171.38 163.86 167.83 155.87ZM101.82 92.82L101.82 92.82Q105.67 99.04 105.08 105.55L105.08 105.55Q104.49 111.77 97.38 107.33L97.38 107.33Q85.84 100.22 76.07 88.98L76.07 88.98L76.37 85.42Q89.69 85.42 101.82 92.82ZM110.11 159.13L110.11 159.13L108.63 212.11Q107.74 220.70 106.26 225.43L106.26 225.43Q105.08 229.58 102.42 229.58L102.42 229.58Q97.68 223.95 97.38 219.51L97.38 219.51Q97.09 216.55 97.09 184.58L97.09 184.58Q97.09 165.05 93.54 152.32L93.54 152.32Q95.90 148.77 105.38 154.69L105.38 154.69Q109.52 157.35 110.11 159.13ZM63.05 170.08L63.05 170.08L71.93 179.55Q76.37 185.77 72.82 190.80L72.82 190.80L71.93 255.33Q71.93 261.54 67.19 268.06L67.19 268.06L65.71 269.54Q61.86 269.54 58.02 263.02L58.02 263.02Q52.69 253.85 57.13 234.31L57.13 234.31Q60.38 220.99 60.38 216.26L60.38 216.26Q61.86 188.14 56.24 177.78L56.24 177.78L33.15 199.68Q17.46 213.59 8.88 215.37L8.88 215.37L7.40 214.78L7.99 212.41Q47.36 176.00 65.71 146.40L65.71 146.40Q70.74 138.11 73.11 131.30L73.11 131.30Q74.30 128.64 72.52 119.46L72.52 119.46Q72.22 117.98 72.22 116.80L72.22 116.80Q78.14 112.95 87.91 121.24L87.91 121.24Q94.72 127.16 94.72 131.90L94.72 131.90Q94.72 134.56 86.43 142.55L86.43 142.55L82.29 146.99Q75.78 156.76 63.05 170.08Z" stroke="#000" fill="black" /></svg>