<svg width="296" height="296" version="1.1" xmlns="http://www.w3.org/2000/svg" xmlns:xlink="http://www.w3.org/1999/xlink"><path d="M209.86 67.78L209.86 67.78L207.20 70.45L166.35 74.59Q164.87 77.85 160.43 97.09L160.43 97.09Q166.65 102.12 166.94 102.12L166.94 102.12Q168.13 103.90 168.42 105.67L168.42 105.67L166.94 106.86Q161.62 107.15 129.94 111L129.94 111Q123.43 111.89 118.10 112.48L118.10 112.48L115.44 118.70Q114.85 119.29 114.26 119.58L114.26 119.58Q110.11 114.26 107.45 98.27L107.45 98.27Q106.56 93.83 105.67 91.17L105.67 91.17Q103.60 83.77 103.30 83.18L103.30 83.18L101.82 82.29Q97.09 81.99 83.47 85.84L83.47 85.84Q71.63 89.10 64.82 82.58L64.82 82.58Q62.75 80.81 60.68 77.85L60.68 77.85L62.46 76.37L101.53 73.70Q99.16 59.50 90.28 49.43L90.28 49.43Q90.28 47.36 94.13 45.58L94.13 45.58Q95.31 45.29 95.61 44.99L95.61 44.99Q104.49 44.99 113.96 50.62L113.96 50.62L114.85 52.98L114.85 71.63Q125.21 71.04 153.33 65.71L153.33 65.71L155.70 44.40Q155.70 36.11 152.14 31.38L152.14 31.38Q152.14 28.42 155.70 27.23L155.70 27.23Q167.24 28.71 173.75 36.11L173.75 36.11Q176.12 39.07 176.71 42.33L176.71 42.33Q171.38 51.80 169.02 62.16L169.02 62.16L193.29 59.79Q207.79 59.79 209.86 67.78ZM148.89 97.09L152.14 76.37Q146.52 76.66 116.03 81.10L116.03 81.10L118.40 104.49Q144.15 98.57 148.89 97.09L148.89 97.09ZM258.70 127.87L258.70 127.87Q258.70 132.31 254.56 134.09L254.56 134.09L170.50 134.68L133.50 136.75L142.67 144.15L142.97 153.33L178.19 149.18Q195.36 148.89 210.46 163.69L210.46 163.69Q210.46 168.13 204.24 174.05L204.24 174.05Q200.69 177.30 199.50 179.08L199.50 179.08Q195.36 185 190.03 203.94L190.03 203.94Q185.59 220.52 178.19 227.62L178.19 227.62Q173.46 227.92 171.68 223.18L171.68 223.18Q171.09 222 170.79 220.52L170.79 220.52Q166.94 220.82 116.62 226.14L116.62 226.14Q107.15 227.03 99.46 227.62L99.46 227.62L97.98 231.18Q92.06 231.18 87.32 221.41L87.32 221.41Q86.73 220.22 86.43 219.04L86.43 219.04L83.77 206.02Q79.03 181.15 68.67 163.39L68.67 163.39Q68.67 160.43 70.15 159.84L70.15 159.84Q81.70 160.43 86.43 162.80L86.43 162.80L127.87 155.99Q127.87 145.34 123.43 137.64L123.43 137.64Q90.58 141.19 61.57 146.52L61.57 146.52L35.22 152.14Q34.04 152.44 32.86 152.44L32.86 152.44Q25.75 153.03 19.24 148.30L19.24 148.30Q15.39 145.63 13.62 141.78L13.62 141.78L15.39 140.01Q144.15 126.39 173.46 122.25L173.46 122.25Q179.08 121.66 184.41 120.77L184.41 120.77L227.33 113.66Q237.69 112.18 250.71 120.77L250.71 120.77Q255.45 124.32 258.70 127.87ZM142.67 163.69L142.67 163.69L142.38 180.56Q158.95 176.71 165.76 180.86L165.76 180.86Q167.83 182.04 169.31 184.11L169.31 184.11Q169.31 187.07 168.42 187.66L168.42 187.66Q166.94 188.85 143.86 191.51L143.86 191.51Q142.08 191.81 141.19 191.81L141.19 191.81L140.90 214.01L160.73 210.75Q166.94 210.46 172.27 212.23L172.27 212.23Q182.34 178.78 181.74 165.76L181.74 165.76Q181.15 158.36 148.59 163.10L148.59 163.10Q144.15 163.69 142.67 163.69ZM128.46 216.38L128.46 216.38L128.46 193.58L113.37 195.36Q107.45 195.06 105.38 190.03L105.38 190.03Q108.34 188.85 125.50 184.70L125.50 184.70L127.87 184.11L127.87 165.76Q99.75 169.61 89.69 172.57L89.69 172.57Q92.35 182.93 99.75 220.52L99.75 220.52Q111.59 217.86 128.46 216.38ZM160.73 241.83L160.73 241.83Q158.95 238.87 158.95 235.32L158.95 235.32L159.84 234.43Q196.25 245.09 205.72 255.74L205.72 255.74Q211.94 262.85 211.94 273.80L211.94 273.80Q211.94 282.09 206.90 281.50L206.90 281.50Q205.13 281.20 202.76 279.42L202.76 279.42Q200.69 278.24 192.10 269.66L192.10 269.66L190.62 267.88Q176.12 253.67 160.73 241.83ZM120.18 243.61L120.18 243.61Q120.18 248.34 114.85 251.60L114.85 251.60L87.62 269.66Q66.01 282.38 47.95 282.38L47.95 282.38Q43.81 282.38 41.44 282.09L41.44 282.09L74.59 261.96Q92.06 250.12 97.09 241.24L97.09 241.24L100.34 235.02Q101.23 234.14 102.42 233.54L102.42 233.54Q113.37 234.73 120.18 243.61Z" stroke="#000" fill="black" /></svg>